<svg xmlns="http://www.w3.org/2000/svg" viewBox="0 0 320 240" role="img" aria-label="A phone held sideways. On its screen the whole table sits inside the frame with room to spare, both halves visible and a player at each end.">
  <defs>
    <radialGradient id="bg" cx="50%" cy="45%" r="78%"><stop offset="0" stop-color="#151c24"/><stop offset="1" stop-color="#0a0b10"/></radialGradient>
    <linearGradient id="body" x1="0" y1="0" x2="0" y2="1"><stop offset="0" stop-color="#232331"/><stop offset="1" stop-color="#121218"/></linearGradient>
    <linearGradient id="top" x1="0" y1="0" x2="0" y2="1"><stop offset="0" stop-color="#113a40"/><stop offset="1" stop-color="#0c2328"/></linearGradient>
    <radialGradient id="ball" cx="35%" cy="30%" r="70%"><stop offset="0" stop-color="#ffedd5"/><stop offset="0.4" stop-color="#fdba74"/><stop offset="0.75" stop-color="#f97316"/><stop offset="1" stop-color="#c2410c"/></radialGradient>
    <radialGradient id="pl" cx="40%" cy="35%" r="70%"><stop offset="0" stop-color="#3b3b46"/><stop offset="1" stop-color="#16161d"/></radialGradient>
    <filter id="glow" x="-30%" y="-30%" width="160%" height="160%"><feGaussianBlur stdDeviation="3"/></filter>
  </defs>
  <rect width="320" height="240" fill="url(#bg)"/>
  <rect x="24" y="28" width="272" height="184" rx="26" fill="url(#body)" stroke="#3d3d4a" stroke-width="1.5"/>
  <rect x="34" y="38" width="252" height="164" rx="16" fill="#0a1015"/>
  <rect x="42" y="104" width="8" height="32" rx="4" fill="#040406"/>
  <g stroke="#22d3ee" stroke-width="4" stroke-linecap="round" fill="none" opacity="0.5" filter="url(#glow)"><path d="M56 70 v-14 h14 M250 56 h14 v14 M56 170 v14 h14 M264 170 v14 h-14"/></g>
  <path d="M56 70 v-14 h14 M250 56 h14 v14 M56 170 v14 h14 M264 170 v14 h-14" fill="none" stroke="#22d3ee" stroke-width="1.8" stroke-linecap="round"/>
  <circle cx="246" cy="52" r="5" fill="#f87171" fill-opacity="0.35" filter="url(#glow)"/><circle cx="246" cy="52" r="2.8" fill="#f87171"/>
  <polygon points="74,170 246,170 220,114 100,114" fill="none" stroke="#22d3ee" stroke-width="5" stroke-opacity="0.4" stroke-linejoin="round" filter="url(#glow)"/>
  <polygon points="74,170 246,170 220,114 100,114" fill="url(#top)" stroke="#22d3ee" stroke-width="2" stroke-linejoin="round"/>
  <line x1="87" y1="142" x2="233" y2="142" stroke="#e5f9fd" stroke-width="1" stroke-opacity="0.45" stroke-dasharray="3 5"/>
  <line x1="160" y1="105" x2="160" y2="179" stroke="#e879f9" stroke-width="5" stroke-opacity="0.4" filter="url(#glow)"/>
  <line x1="160" y1="105" x2="160" y2="179" stroke="#e879f9" stroke-width="2.5"/>
  <circle cx="204" cy="128" r="3" fill="#f97316" fill-opacity="0.35"/>
  <circle cx="118" cy="153" r="9" fill="#f97316" fill-opacity="0.35" filter="url(#glow)"/>
  <circle cx="118" cy="153" r="5.5" fill="url(#ball)"/>
  <circle cx="62" cy="122" r="8" fill="url(#pl)" stroke="#7a7a88" stroke-width="1.5"/>
  <path d="M51 150 q11 -15 22 0" fill="none" stroke="#7a7a88" stroke-width="1.5" stroke-linecap="round"/>
  <circle cx="258" cy="122" r="8" fill="url(#pl)" stroke="#5c5c68" stroke-width="1.5"/>
  <path d="M247 150 q11 -15 22 0" fill="none" stroke="#5c5c68" stroke-width="1.5" stroke-linecap="round"/>
</svg>
